# Blender 3.3.11 Release Candidate
# www.blender.org
mtllib D20_Die.mtl
o Die
v 0.850651 0.000000 -0.525731
v -0.850651 0.000000 -0.525731
v 0.850651 0.000000 0.525731
v -0.850651 0.000000 0.525731
v 0.525731 0.850651 0.000000
v 0.525731 -0.850651 0.000000
v -0.525731 0.850651 0.000000
v -0.525731 -0.850651 0.000000
v 0.000000 0.525731 -0.850651
v 0.000000 0.525731 0.850651
v 0.000000 -0.525731 -0.850651
v 0.000000 -0.525731 0.850651
vn 0.5774 0.5774 -0.5774
vn 0.5774 -0.5774 -0.5774
vn 0.5774 0.5774 0.5774
vn 0.5774 -0.5774 0.5774
vn -0.5774 0.5774 -0.5774
vn -0.5774 -0.5774 -0.5774
vn -0.5774 0.5774 0.5774
vn -0.5774 -0.5774 0.5774
vn 0.3568 -0.0000 -0.9342
vn -0.3568 -0.0000 -0.9342
vn 0.3568 -0.0000 0.9342
vn -0.3568 -0.0000 0.9342
vn 0.9342 0.3568 -0.0000
vn 0.9342 -0.3568 -0.0000
vn -0.9342 0.3568 -0.0000
vn -0.9342 -0.3568 -0.0000
vn -0.0000 0.9342 -0.3568
vn -0.0000 0.9342 0.3568
vn -0.0000 -0.9342 -0.3568
vn -0.0000 -0.9342 0.3568
vt 0.000000 0.115470
vt 0.400000 0.230940
vt 0.400000 0.577350
vt 0.200000 0.692820
vt 0.400000 0.923760
vt 0.400000 0.115470
vt 0.600000 0.230940
vt 0.800000 0.000000
vt 0.400000 0.808290
vt 0.600000 0.808290
vt 0.000000 0.346410
vt 0.400000 0.230940
vt 0.800000 0.230940
vt 0.000000 0.808290
vt 0.200000 0.808290
vt 0.000000 0.577350
vt 0.400000 0.692820
vt 0.600000 0.577350
vt 0.600000 0.692820
vt 0.800000 0.923760
vt 0.200000 0.230940
vt 0.200000 0.923760
vt 0.800000 0.115470
vt 1.000000 0.461880
vt 0.200000 0.115470
vt 0.200000 0.346410
vt 0.400000 0.692820
vt 0.800000 0.577350
vt 1.000000 0.692820
vt 0.600000 0.000000
vt 0.200000 0.692820
vt 0.600000 0.923760
vt 1.000000 0.230940
vt 0.800000 0.346410
vt 0.400000 0.346410
vt 0.200000 0.577350
vt 0.800000 0.692820
vt 1.000000 0.461880
vt 0.800000 0.808290
vt 0.200000 0.000000
vt 0.600000 0.230940
vt 0.600000 0.692820
vt 0.800000 0.230940
vt 1.000000 0.000000
vt 0.200000 0.461880
vt 0.800000 0.461880
vt 0.800000 0.692820
vt 1.000000 0.230940
vt 0.400000 0.000000
vt 0.600000 0.461880
vt 0.600000 0.115470
vt 1.000000 0.692820
vt 0.400000 0.461880
vt 0.600000 0.346410
vt 0.800000 0.461880
vt 1.000000 0.923760
s 0
usemtl Material.001
f 1/1/1 9/40/1 5/21/1
f 1/2/2 6/25/2 11/49/2
f 3/11/3 5/21/3 10/45/3
f 3/12/4 12/53/4 6/26/4
f 2/6/5 7/30/5 9/41/5
f 2/7/6 11/50/6 8/35/6
f 4/16/7 10/45/7 7/31/7
f 4/17/8 8/36/8 12/53/8
f 1/3/9 11/50/9 9/42/9
f 2/8/10 9/43/10 11/51/10
f 3/13/11 10/46/11 12/54/11
f 4/18/12 12/55/12 10/47/12
f 5/22/13 3/14/13 1/4/13
f 6/27/14 1/5/14 3/15/14
f 7/32/15 2/9/15 4/19/15
f 8/37/16 4/20/16 2/10/16
f 9/44/17 7/33/17 5/23/17
f 10/48/18 5/24/18 7/34/18
f 11/52/19 6/28/19 8/38/19
f 12/56/20 8/39/20 6/29/20
